<?xml version="1.0" encoding="utf-8"?><svg version="1.1" id="Layer_1" xmlns="http://www.w3.org/2000/svg" xmlns:xlink="http://www.w3.org/1999/xlink" x="0px" y="0px" viewBox="0 0 161.6 100.2" style="enable-background:new 0 0 161.6 100.2;" xml:space="preserve"> <style type="text/css"> .st0{fill:#f49ac1;} .st1{fill:#f04e3e;} .st2{fill:#FFFFFF;} </style> <g> <g> <path class="st0" d="M107.6,70.8c-7.9-5.2-17.4-8.3-27.6-8.3c-11.8,0-22.6,4.1-31.2,10.9c-2.9,2.3-5.6,5-8,8 c-2.6,3.2-4.8,6.8-6.5,10.6c2.1,1.4,4.3,2.6,6.6,3.7c0.4-3.9,1.3-7.7,2.5-11.3c7.2,7.7,16.8,13.1,27.6,15c2.9,0.5,5.9,0.8,9,0.8 c15.9,0,30-7.4,39.2-18.9C115.8,77.3,111.9,73.7,107.6,70.8z M102.5,82c-0.6,0-1.1-0.2-1.6-0.4c-0.8-0.5-1.4-1.5-1.4-2.5 c0-1.6,1.3-3,3-3c0.7,0,1.4,0.2,1.9,0.7c0.7,0.5,1.1,1.4,1.1,2.3C105.4,80.7,104.1,82,102.5,82z"/> <path class="st1" d="M80,0c-3.1,0-6.1,0.3-9,0.8C47.6,5.1,29.8,25.5,29.8,50.1c0,9.7,2.7,18.7,7.5,26.4c1-1.2,2-2.3,3.1-3.4 c2.5-2.5,5.3-4.8,8.3-6.8c3-2,6.2-3.8,9.5-5.2c1.3-0.6,2.6-1.1,4-1.5c5.7-1.9,11.7-2.9,17.8-2.9c7.5,0,14.9,1.5,21.8,4.4 c2.8,1.2,5.4,2.6,8,4.2c0.5,0.3,1,0.7,1.5,1c3,2,5.7,4.3,8.3,6.8c1.1,1.1,2.1,2.2,3.1,3.4c1.9-3.1,3.5-6.4,4.7-9.9 c1.8-5.2,2.8-10.7,2.8-16.4C130.1,22.4,107.6,0,80,0z M87.1,19.7l-3,1.3c-0.4,0.2-0.5,0.7-0.2,1.1l2.1,2.5 c0.5,0.6-0.2,1.4-0.8,1.1l-2.9-1.5c-0.4-0.2-0.9,0-1,0.5l-0.6,3.2c-0.1,0.7-1.2,0.7-1.3,0l-0.6-3.2c-0.1-0.5-0.6-0.7-1-0.5 l-2.9,1.5c-0.7,0.3-1.3-0.5-0.8-1.1l2.1-2.5c0.3-0.3,0.2-0.9-0.2-1.1l-3-1.3c-0.7-0.3-0.5-1.3,0.3-1.3l3.3,0.1 c0.5,0,0.8-0.4,0.7-0.9l-0.8-3.2c-0.2-0.7,0.8-1.2,1.2-0.6l2,2.6c0.3,0.4,0.8,0.4,1.1,0l2-2.6c0.5-0.6,1.4-0.1,1.2,0.6l-0.8,3.2 c-0.1,0.4,0.2,0.9,0.7,0.9l3.3-0.1C87.6,18.4,87.8,19.4,87.1,19.7z"/> </g> <g> <g> <path class="st2" d="M21.6,45.2c1.8,0,3.1,0.6,3.1,2.6c0,1.1-0.6,2-1.6,2.3c1.3,0.3,1.4,1.2,1.4,2.3c0,0.8,0,1.7,0.5,2.2h-1.4 c-0.3-0.5-0.3-1.5-0.3-2.1c-0.1-1.6-0.5-2-2.2-2h-2.5v4.1h-1.2v-9.4H21.6z M18.8,49.5h2.3c1.2,0,2.5-0.1,2.5-1.7 c0-1.4-1-1.6-2.1-1.6h-2.7V49.5z"/> <path class="st2" d="M42.8,49.8c0,2.8-1.5,5-4.5,5c-3,0-4.5-2.3-4.5-5c0-2.9,1.7-4.8,4.5-4.8C41.2,44.9,42.8,47,42.8,49.8z M35.1,49.8c0,2.3,1.3,3.9,3.3,3.9c2,0,3.2-1.5,3.2-3.9c0-2.3-1.3-3.8-3.3-3.8C36.1,46,35.1,47.8,35.1,49.8z"/> <path class="st2" d="M58.5,54.5h-6.2v-9.4h1.2v8.3h5V54.5z"/> <path class="st2" d="M73.6,54.5h-6.2v-9.4h1.2v8.3h5V54.5z"/> <path class="st2" d="M91.8,54.8c-2.7,0-4.3-1.9-4.3-4.9c0-2.7,1.5-4.9,4.4-4.9c1.8,0,3.7,1,3.9,3h-1.2c-0.3-1.2-1.3-2-2.7-2 c-2.2,0-3.1,1.9-3.1,3.8c0,2.4,1.2,3.8,3.1,3.8c1.6,0,2.6-0.9,2.8-2.7h1.2C95.7,53.4,94.1,54.8,91.8,54.8z"/> <path class="st2" d="M111.7,54.5h-6.2v-9.4h1.2v8.3h5V54.5z"/> <path class="st2" d="M121.7,45.2v5.9c0,1.8,0.7,2.6,2.5,2.6c1.9,0,2.5-0.9,2.5-2.6v-5.9h1.2v5.6c0,2.6-0.9,4-3.8,4 c-2.7,0-3.8-1.3-3.8-3.9v-5.7H121.7z"/> <path class="st2" d="M141.3,45.2c1.5,0,3,0.6,3,2.3c0,0.9-0.5,1.7-1.4,2c1.2,0.3,1.8,1.1,1.8,2.4c0,2.2-1.8,2.6-3.5,2.6h-3.8 v-9.4H141.3z M138.5,49.2h2.2c1,0,2.3-0.1,2.3-1.5c0-1.4-1.1-1.5-2.2-1.5h-2.3V49.2z M138.5,53.5h2.5c1.2,0,2.5-0.1,2.5-1.7 c0-1.6-1.4-1.6-2.7-1.6h-2.3V53.5z"/> </g> <path class="st2" d="M160.3,33.8v32.9H1.2V33.8H160.3 M161.6,32.6H0V68h161.6V32.6L161.6,32.6z"/> </g> </g> </svg>