<?xml version="1.0" standalone="no"?>
<!DOCTYPE svg PUBLIC "-//W3C//DTD SVG 20010904//EN"
 "http://www.w3.org/TR/2001/REC-SVG-20010904/DTD/svg10.dtd">
<svg version="1.0" xmlns="http://www.w3.org/2000/svg"
 width="74.000000pt" height="74.000000pt" viewBox="0 0 74.000000 74.000000"
 preserveAspectRatio="xMidYMid meet">
<metadata>
Created by potrace 1.15, written by Peter Selinger 2001-2017
</metadata>
<g transform="translate(0.000000,74.000000) scale(0.100000,-0.100000)"
fill="#000000" stroke="none">
<path d="M401 717 c-17 -22 -41 -84 -41 -111 0 -20 -6 -25 -37 -31 -83 -15
-165 -82 -202 -165 -30 -66 -29 -188 3 -255 25 -55 81 -110 132 -131 43 -18
185 -18 228 0 51 21 107 76 132 131 19 39 24 67 24 130 0 103 -27 164 -98 225
l-50 44 24 45 c28 54 29 62 9 101 -14 27 -20 30 -64 30 -28 0 -53 -6 -60 -13z
m-116 -397 c69 -36 104 -37 173 -5 68 31 106 32 126 3 33 -47 12 -135 -47
-197 -90 -95 -244 -95 -334 0 -82 87 -85 229 -3 229 15 0 54 -13 85 -30z"/>
</g>
</svg>
